<?xml version="1.0" encoding="utf-8"?>
<!-- Generator: Adobe Illustrator 15.0.0, SVG Export Plug-In . SVG Version: 6.00 Build 0)  -->
<!DOCTYPE svg PUBLIC "-//W3C//DTD SVG 1.1//EN" "http://www.w3.org/Graphics/SVG/1.1/DTD/svg11.dtd">
<svg version="1.1" id="Layer_1" xmlns="http://www.w3.org/2000/svg" xmlns:xlink="http://www.w3.org/1999/xlink" x="0px" y="0px"
	 width="244.605px" height="41.456px" viewBox="0 0 244.605 41.456" enable-background="new 0 0 244.605 41.456"
	 xml:space="preserve">
<g>
	<path fill="#D2514B" d="M56.786,23.162h3.182v2.272c1.629,2.766,3.523,4.243,5.985,4.243c2.614,0,4.546-1.857,4.546-4.318
		c0-5.038-8.068-3.296-12.084-7.312c-0.984-0.984-1.704-2.5-1.704-4.659c0-4.772,3.637-7.045,7.5-7.045
		c2.045,0,4.016,0.682,5.758,2.007V6.646h3.182v7.766h-3.182v-1.781c-1.401-2.045-3.106-2.993-5.455-2.993
		c-2.613,0-4.318,1.326-4.318,3.296c0,0.871,0.341,1.667,0.872,2.196c2.008,2.008,8.182,1.667,11.174,4.659
		c1.364,1.364,2.198,3.448,2.198,5.531c0,4.356-3.485,7.575-8.145,7.575c-2.349,0-4.47-0.833-6.326-2.537v2.121h-3.182V23.162z"/>
	<path fill="#D2514B" d="M85.292,14.071c5.379,0,9.395,4.053,9.395,9.47s-4.053,9.47-9.433,9.47c-5.379,0-9.394-4.053-9.394-9.47
		S79.875,14.071,85.292,14.071 M85.254,29.601c3.221,0,5.645-2.575,5.645-6.061c0-3.447-2.424-6.061-5.645-6.061
		c-3.181,0-5.606,2.613-5.606,6.061C79.647,27.026,82.073,29.601,85.254,29.601"/>
	<polygon fill="#D2514B" points="98.2,9.866 95.018,9.866 95.018,6.76 101.761,6.76 101.761,29.373 104.525,29.373 104.525,32.48 
		94.941,32.48 94.941,29.373 98.2,29.373 	"/>
	<path fill="#D2514B" d="M107.983,17.707h-2.841V14.6h6.401v14.773h2.841v3.106h-9.242v-3.106h2.841V17.707z M111.81,8.502
		c0,1.174-0.948,2.122-2.122,2.122c-1.175,0-2.121-0.947-2.121-2.122s0.946-2.121,2.121-2.121
		C110.861,6.381,111.81,7.328,111.81,8.502"/>
	<path fill="#D2514B" d="M136.741,32.48h-6.819v-2.652c-1.856,2.008-3.863,2.955-6.362,2.955c-4.055,0-8.789-2.765-8.789-9.167
		c0-5.417,3.825-9.546,8.864-9.546c2.424,0,4.507,0.985,6.287,2.88V9.866h-3.408V6.76h6.969v22.613h3.259V32.48z M124.203,29.677
		c3.332,0,5.719-2.689,5.719-6.326c0-3.599-2.349-6.061-5.757-6.061c-3.184,0-5.607,2.651-5.607,6.212
		C118.558,27.177,120.869,29.677,124.203,29.677"/>
	<path fill="#D2514B" d="M137.552,23.162h3.182v2.272c1.63,2.766,3.523,4.243,5.986,4.243c2.613,0,4.545-1.857,4.545-4.318
		c0-5.038-8.067-3.296-12.082-7.312c-0.986-0.984-1.705-2.5-1.705-4.659c0-4.772,3.636-7.045,7.499-7.045
		c2.046,0,4.016,0.682,5.758,2.007V6.646h3.183v7.766h-3.183v-1.781c-1.401-2.045-3.105-2.993-5.454-2.993
		c-2.613,0-4.318,1.326-4.318,3.296c0,0.871,0.341,1.667,0.871,2.196c2.008,2.008,8.182,1.667,11.175,4.659
		c1.363,1.364,2.196,3.448,2.196,5.531c0,4.356-3.484,7.575-8.144,7.575c-2.349,0-4.47-0.833-6.327-2.537v2.121h-3.182V23.162z"/>
	<path fill="#D2514B" d="M159.215,17.707h-2.993v-3.105h6.554v2.234c2.083-1.666,4.091-2.537,6.061-2.537
		c2.008,0,3.562,0.984,4.318,2.803c2.576-2.008,4.395-2.803,6.439-2.803c2.954,0,4.773,1.818,4.773,4.923v10.151h3.067v3.107h-6.629
		V20.018c0-1.743-0.795-2.614-2.158-2.614c-1.439,0-3.297,0.871-5.076,2.349v9.62h3.068v3.107h-6.63V20.094
		c0-1.896-1.06-2.539-2.197-2.539c-1.287,0-2.877,0.683-5.037,2.197v9.62h3.067v3.107h-9.887v-3.107h3.259V17.707z"/>
	<path fill="#D2514B" d="M206.247,32.48h-6.212v-2.197c-2.236,1.818-3.79,2.5-5.759,2.5c-3.409,0-6.061-2.5-6.061-5.683
		c0-3.257,2.84-5.795,6.516-5.795c1.59,0,3.447,0.568,4.887,1.516v-2.349c0-2.538-1.856-3.447-3.978-3.447
		c-1.704,0-3.03,0.72-3.825,2.122l-3.372-0.909c1.515-2.766,4.091-4.167,7.728-4.167c5.229,0,7.009,2.613,7.009,5.492v9.811h3.067
		V32.48z M199.618,25.813c-1.517-1.174-3.106-1.781-4.622-1.781c-1.969,0-3.409,1.289-3.409,3.068c0,1.744,1.325,2.955,3.221,2.955
		c1.59,0,3.371-0.796,4.811-2.121V25.813z"/>
	<path fill="#D2514B" d="M223.261,21.343h-3.183c-0.189-1.25-0.72-2.272-1.552-2.992c-0.797-0.682-1.895-1.062-3.183-1.062
		c-3.182,0-5.304,2.463-5.304,6.062c0,3.826,2.235,6.439,5.455,6.439c2.387,0,4.318-1.25,5.379-3.523l2.917,1.364
		c-1.553,3.522-4.508,5.379-8.411,5.379c-6.211,0-9.127-5.076-9.127-9.621c0-5.151,3.902-9.318,8.788-9.318
		c1.932,0,3.712,0.605,5.037,1.742V14.6h3.183V21.343z"/>
	<polygon fill="#D2514B" points="227.514,9.866 224.293,9.866 224.293,6.76 231.074,6.76 231.074,22.821 237.777,17.555 
		237.777,17.48 234.785,17.48 234.785,14.6 244.71,14.6 244.71,17.48 241.945,17.48 235.24,23.048 241.566,29.373 244.635,29.373 
		244.635,32.48 240.09,32.48 231.074,23.464 231.074,29.373 233.725,29.373 233.725,32.48 224.256,32.48 224.256,29.373 
		227.514,29.373 	"/>
	<polygon fill-rule="evenodd" clip-rule="evenodd" fill="#FFDC2E" points="22.179,0 0.001,8.116 20.64,17.641 42.866,8.116 	"/>
	<polygon fill-rule="evenodd" clip-rule="evenodd" fill="#D2514B" points="20.64,16.054 20.64,41.456 42.867,31.929 42.867,8.116 	
		"/>
	<polygon fill-rule="evenodd" clip-rule="evenodd" fill="#DD851D" points="0,7.985 0.001,31.929 20.64,41.456 20.64,16.054 	"/>
</g>
</svg>
